<svg width="28" height="31" viewBox="0 0 28 31" fill="none" xmlns="http://www.w3.org/2000/svg">
<path d="M7.04901 24.2734H5.49361C5.4652 24.0722 5.4072 23.8935 5.3196 23.7372C5.23201 23.5786 5.11956 23.4437 4.98224 23.3324C4.84493 23.2211 4.68632 23.1359 4.50639 23.0767C4.32884 23.0175 4.13589 22.9879 3.92756 22.9879C3.55114 22.9879 3.22325 23.0814 2.94389 23.2685C2.66454 23.4531 2.44792 23.723 2.29403 24.0781C2.14015 24.4309 2.06321 24.8594 2.06321 25.3636C2.06321 25.8821 2.14015 26.3177 2.29403 26.6705C2.45028 27.0232 2.66809 27.2895 2.94744 27.4695C3.2268 27.6494 3.54995 27.7393 3.9169 27.7393C4.12287 27.7393 4.31345 27.7121 4.48864 27.6577C4.66619 27.6032 4.82363 27.5239 4.96094 27.4197C5.09825 27.3132 5.21188 27.1842 5.30185 27.0327C5.39418 26.8812 5.4581 26.7083 5.49361 26.5142L7.04901 26.5213C7.00876 26.8551 6.90814 27.1771 6.74716 27.4872C6.58854 27.795 6.37429 28.0708 6.1044 28.3146C5.83688 28.5561 5.51728 28.7479 5.1456 28.8899C4.77628 29.0296 4.35843 29.0994 3.89205 29.0994C3.24337 29.0994 2.66335 28.9527 2.15199 28.6591C1.64299 28.3655 1.24053 27.9406 0.944602 27.3842C0.651042 26.8279 0.504261 26.1544 0.504261 25.3636C0.504261 24.5705 0.653409 23.8958 0.951705 23.3395C1.25 22.7831 1.65483 22.3594 2.16619 22.0682C2.67756 21.7746 3.25284 21.6278 3.89205 21.6278C4.31345 21.6278 4.70407 21.687 5.06392 21.8054C5.42614 21.9238 5.74692 22.0966 6.02628 22.3239C6.30563 22.5488 6.53291 22.8246 6.7081 23.1513C6.88565 23.478 6.99929 23.852 7.04901 24.2734ZM9.63601 21.7273V29H8.12322V21.7273H9.63601ZM13.3123 29.1065C12.7607 29.1065 12.2837 28.9893 11.8812 28.755C11.4811 28.5182 11.1722 28.1892 10.9544 27.7678C10.7366 27.344 10.6277 26.8527 10.6277 26.294C10.6277 25.7306 10.7366 25.2382 10.9544 24.8168C11.1722 24.393 11.4811 24.0639 11.8812 23.8295C12.2837 23.5928 12.7607 23.4744 13.3123 23.4744C13.8639 23.4744 14.3398 23.5928 14.7399 23.8295C15.1423 24.0639 15.4525 24.393 15.6703 24.8168C15.8881 25.2382 15.997 25.7306 15.997 26.294C15.997 26.8527 15.8881 27.344 15.6703 27.7678C15.4525 28.1892 15.1423 28.5182 14.7399 28.755C14.3398 28.9893 13.8639 29.1065 13.3123 29.1065ZM13.3194 27.9347C13.5704 27.9347 13.7799 27.8636 13.948 27.7216C14.1161 27.5772 14.2427 27.3807 14.3279 27.1321C14.4155 26.8835 14.4593 26.6006 14.4593 26.2834C14.4593 25.9661 14.4155 25.6832 14.3279 25.4347C14.2427 25.1861 14.1161 24.9896 13.948 24.8452C13.7799 24.7008 13.5704 24.6286 13.3194 24.6286C13.0661 24.6286 12.853 24.7008 12.6802 24.8452C12.5098 24.9896 12.3807 25.1861 12.2931 25.4347C12.2079 25.6832 12.1653 25.9661 12.1653 26.2834C12.1653 26.6006 12.2079 26.8835 12.2931 27.1321C12.3807 27.3807 12.5098 27.5772 12.6802 27.7216C12.853 27.8636 13.0661 27.9347 13.3194 27.9347ZM21.519 25.1009L20.1341 25.1861C20.1104 25.0677 20.0595 24.9612 19.9814 24.8665C19.9032 24.7694 19.8002 24.6925 19.6724 24.6357C19.5469 24.5765 19.3966 24.5469 19.2214 24.5469C18.987 24.5469 18.7894 24.5966 18.6284 24.696C18.4674 24.7931 18.3869 24.9233 18.3869 25.0866C18.3869 25.2169 18.439 25.3269 18.5431 25.4169C18.6473 25.5069 18.8261 25.5791 19.0794 25.6335L20.0666 25.8324C20.5969 25.9413 20.9922 26.1165 21.2527 26.358C21.5131 26.5994 21.6433 26.9167 21.6433 27.3097C21.6433 27.6671 21.5379 27.9808 21.3272 28.2507C21.1189 28.5206 20.8324 28.7313 20.4679 28.8828C20.1056 29.032 19.6878 29.1065 19.2143 29.1065C18.4922 29.1065 17.917 28.9562 17.4885 28.6555C17.0623 28.3525 16.8126 27.9406 16.7392 27.4197L18.2271 27.3416C18.2721 27.5618 18.381 27.7299 18.5538 27.8459C18.7266 27.9595 18.948 28.0163 19.2179 28.0163C19.483 28.0163 19.6961 27.9654 19.8571 27.8636C20.0204 27.7595 20.1033 27.6257 20.1056 27.4624C20.1033 27.325 20.0453 27.2126 19.9316 27.125C19.818 27.035 19.6428 26.9664 19.4061 26.919L18.4615 26.7308C17.9288 26.6243 17.5323 26.4396 17.2718 26.1768C17.0138 25.9141 16.8848 25.5791 16.8848 25.1719C16.8848 24.8215 16.9795 24.5196 17.1689 24.2663C17.3606 24.013 17.6293 23.8177 17.975 23.6804C18.323 23.5431 18.7302 23.4744 19.1966 23.4744C19.8855 23.4744 20.4276 23.62 20.823 23.9112C21.2207 24.2024 21.4527 24.599 21.519 25.1009ZM25.0817 29.1065C24.5206 29.1065 24.0376 28.9929 23.6328 28.7656C23.2304 28.536 22.9202 28.2116 22.7024 27.7926C22.4846 27.3712 22.3757 26.8729 22.3757 26.2976C22.3757 25.7365 22.4846 25.2441 22.7024 24.8203C22.9202 24.3965 23.2268 24.0663 23.6222 23.8295C24.0199 23.5928 24.4863 23.4744 25.0213 23.4744C25.3812 23.4744 25.7161 23.5324 26.0263 23.6484C26.3388 23.7621 26.611 23.9337 26.843 24.1634C27.0774 24.393 27.2597 24.6818 27.3899 25.0298C27.5201 25.3755 27.5852 25.7803 27.5852 26.2443V26.6598H22.9794V25.7223H26.1612C26.1612 25.5045 26.1139 25.3116 26.0192 25.1435C25.9245 24.9754 25.7931 24.844 25.625 24.7493C25.4593 24.6522 25.2663 24.6037 25.0462 24.6037C24.8165 24.6037 24.6129 24.657 24.4354 24.7635C24.2602 24.8677 24.1229 25.0085 24.0234 25.1861C23.924 25.3613 23.8731 25.5566 23.8707 25.772V26.6634C23.8707 26.9332 23.9205 27.1664 24.0199 27.3629C24.1217 27.5594 24.2649 27.7109 24.4496 27.8175C24.6342 27.924 24.8532 27.9773 25.1065 27.9773C25.2746 27.9773 25.4285 27.9536 25.5682 27.9062C25.7079 27.8589 25.8274 27.7879 25.9268 27.6932C26.0263 27.5985 26.102 27.4825 26.1541 27.3452L27.5533 27.4375C27.4822 27.7737 27.3366 28.0672 27.1165 28.3182C26.8987 28.5668 26.617 28.7609 26.2713 28.9006C25.928 29.0379 25.5315 29.1065 25.0817 29.1065Z" fill="#353535"/>
<path d="M5.41421 19.0919C4.63316 18.3109 4.63316 17.0446 5.41421 16.2635L20.2635 1.41428C21.0445 0.63323 22.3108 0.63323 23.0919 1.41428V1.41428C23.8729 2.19533 23.8729 3.46166 23.0919 4.24271L8.24264 19.0919C7.46159 19.873 6.19526 19.873 5.41421 19.0919V19.0919Z" fill="#353535"/>
<rect x="6.82843" width="25" height="4" rx="2" transform="rotate(45 6.82843 0)" fill="#353535"/>
</svg>
