<svg width="376" height="122" viewBox="0 0 376 122" fill="none" xmlns="http://www.w3.org/2000/svg">
<rect width="376" height="37" fill="#5CC1DD"/>
<rect y="37" width="376" height="85" fill="white"/>
<line x1="98.3506" y1="2.18557e-08" x2="98.3506" y2="37" stroke="white"/>
<line x1="98.3506" y1="37" x2="98.3506" y2="122" stroke="#5CC1DD"/>
<line x1="-4.37114e-08" y1="79.5" x2="376" y2="79.5" stroke="#5CC1DD"/>
<path d="M12.9886 53.4162C13.3764 53.4193 13.7642 53.4931 14.152 53.6378C14.5398 53.7824 14.8937 54.0225 15.2138 54.358C15.5339 54.6903 15.7908 55.1443 15.9847 55.7198C16.1786 56.2953 16.2756 57.017 16.2756 57.8849C16.2756 58.7251 16.1955 59.4715 16.0355 60.1239C15.8786 60.7733 15.6508 61.3211 15.3523 61.7674C15.0568 62.2137 14.6967 62.5522 14.272 62.783C13.8504 63.0138 13.3733 63.1293 12.8409 63.1293C12.3116 63.1293 11.8391 63.0246 11.4237 62.8153C11.0112 62.603 10.6727 62.3091 10.408 61.9336C10.1464 61.555 9.97869 61.1165 9.90483 60.6179H11.0312C11.1328 61.0518 11.3344 61.4104 11.636 61.6935C11.9407 61.9736 12.3423 62.1136 12.8409 62.1136C13.5703 62.1136 14.1458 61.7951 14.5675 61.158C14.9922 60.521 15.2045 59.6207 15.2045 58.4574H15.1307C14.9583 58.7159 14.7537 58.939 14.5167 59.1268C14.2797 59.3145 14.0166 59.4592 13.7273 59.5607C13.438 59.6623 13.1302 59.7131 12.804 59.7131C12.2623 59.7131 11.7653 59.5792 11.3129 59.3114C10.8635 59.0406 10.5034 58.6697 10.2326 58.1989C9.96484 57.7249 9.83097 57.1832 9.83097 56.5739C9.83097 55.9953 9.96023 55.4659 10.2188 54.9858C10.4804 54.5026 10.8466 54.1179 11.3175 53.8317C11.7914 53.5455 12.3485 53.407 12.9886 53.4162ZM12.9886 54.4318C12.6009 54.4318 12.2515 54.5288 11.9407 54.7227C11.6329 54.9135 11.3883 55.172 11.2067 55.4982C11.0282 55.8214 10.9389 56.1799 10.9389 56.5739C10.9389 56.9678 11.0251 57.3263 11.1974 57.6495C11.3729 57.9696 11.6114 58.225 11.913 58.4158C12.2177 58.6036 12.5639 58.6974 12.9517 58.6974C13.2441 58.6974 13.5165 58.6405 13.7688 58.5266C14.0212 58.4097 14.2412 58.2512 14.429 58.0511C14.6198 57.848 14.7691 57.6187 14.8768 57.3633C14.9845 57.1048 15.0384 56.8355 15.0384 56.5554C15.0384 56.1861 14.9491 55.8398 14.7706 55.5167C14.5952 55.1935 14.352 54.9319 14.0412 54.7319C13.7334 54.5318 13.3826 54.4318 12.9886 54.4318ZM18.9035 61.7905C18.6758 61.7905 18.4803 61.7089 18.3172 61.5458C18.1541 61.3827 18.0725 61.1873 18.0725 60.9595C18.0725 60.7318 18.1541 60.5363 18.3172 60.3732C18.4803 60.2101 18.6758 60.1286 18.9035 60.1286C19.1312 60.1286 19.3267 60.2101 19.4898 60.3732C19.6529 60.5363 19.7345 60.7318 19.7345 60.9595C19.7345 61.1103 19.696 61.2488 19.6191 61.375C19.5452 61.5012 19.4452 61.6027 19.319 61.6797C19.1959 61.7536 19.0574 61.7905 18.9035 61.7905ZM18.9035 57.0078C18.6758 57.0078 18.4803 56.9263 18.3172 56.7631C18.1541 56.6 18.0725 56.4046 18.0725 56.1768C18.0725 55.9491 18.1541 55.7537 18.3172 55.5906C18.4803 55.4274 18.6758 55.3459 18.9035 55.3459C19.1312 55.3459 19.3267 55.4274 19.4898 55.5906C19.6529 55.7537 19.7345 55.9491 19.7345 56.1768C19.7345 56.3277 19.696 56.4661 19.6191 56.5923C19.5452 56.7185 19.4452 56.8201 19.319 56.897C19.1959 56.9709 19.0574 57.0078 18.9035 57.0078ZM24.7549 63.1293C24.0593 63.1293 23.4669 62.94 22.9775 62.5614C22.4882 62.1798 22.1143 61.6274 21.8557 60.9041C21.5972 60.1778 21.468 59.3007 21.468 58.2727C21.468 57.2509 21.5972 56.3784 21.8557 55.6552C22.1173 54.9289 22.4928 54.3749 22.9822 53.9933C23.4746 53.6085 24.0655 53.4162 24.7549 53.4162C25.4443 53.4162 26.0336 53.6085 26.523 53.9933C27.0154 54.3749 27.3909 54.9289 27.6494 55.6552C27.911 56.3784 28.0418 57.2509 28.0418 58.2727C28.0418 59.3007 27.9126 60.1778 27.654 60.9041C27.3955 61.6274 27.0216 62.1798 26.5322 62.5614C26.0429 62.94 25.4504 63.1293 24.7549 63.1293ZM24.7549 62.1136C25.4443 62.1136 25.9798 61.7812 26.3614 61.1165C26.743 60.4517 26.9339 59.5038 26.9339 58.2727C26.9339 57.4541 26.8461 56.757 26.6707 56.1815C26.4984 55.6059 26.2491 55.1674 25.9229 54.8658C25.5997 54.5642 25.2104 54.4134 24.7549 54.4134C24.0716 54.4134 23.5377 54.7504 23.153 55.4244C22.7683 56.0953 22.5759 57.0447 22.5759 58.2727C22.5759 59.0914 22.6621 59.7869 22.8344 60.3594C23.0068 60.9318 23.2545 61.3673 23.5777 61.6658C23.9039 61.9644 24.2963 62.1136 24.7549 62.1136ZM32.8799 63.1293C32.1843 63.1293 31.5919 62.94 31.1025 62.5614C30.6132 62.1798 30.2393 61.6274 29.9807 60.9041C29.7222 60.1778 29.593 59.3007 29.593 58.2727C29.593 57.2509 29.7222 56.3784 29.9807 55.6552C30.2423 54.9289 30.6178 54.3749 31.1072 53.9933C31.5996 53.6085 32.1905 53.4162 32.8799 53.4162C33.5693 53.4162 34.1586 53.6085 34.648 53.9933C35.1404 54.3749 35.5159 54.9289 35.7744 55.6552C36.036 56.3784 36.1668 57.2509 36.1668 58.2727C36.1668 59.3007 36.0376 60.1778 35.779 60.9041C35.5205 61.6274 35.1466 62.1798 34.6572 62.5614C34.1679 62.94 33.5754 63.1293 32.8799 63.1293ZM32.8799 62.1136C33.5693 62.1136 34.1048 61.7812 34.4864 61.1165C34.868 60.4517 35.0589 59.5038 35.0589 58.2727C35.0589 57.4541 34.9711 56.757 34.7957 56.1815C34.6234 55.6059 34.3741 55.1674 34.0479 54.8658C33.7247 54.5642 33.3354 54.4134 32.8799 54.4134C32.1966 54.4134 31.6627 54.7504 31.278 55.4244C30.8933 56.0953 30.7009 57.0447 30.7009 58.2727C30.7009 59.0914 30.7871 59.7869 30.9594 60.3594C31.1318 60.9318 31.3795 61.3673 31.7027 61.6658C32.0289 61.9644 32.4213 62.1136 32.8799 62.1136ZM43.0654 58.437C42.3764 57.774 41.8044 57.358 40.8554 57.358C39.8414 57.358 38.9444 58.06 38.3984 59.087L37.4754 58.593C38.3074 57.098 39.5034 56.318 40.8684 56.318C42.0514 56.318 42.8964 56.799 43.8064 57.696C44.4954 58.372 45.0674 58.775 46.0164 58.775C47.0304 58.775 47.9274 58.073 48.4734 57.046L49.3964 57.54C48.5644 59.035 47.3684 59.815 46.0034 59.815C44.8204 59.815 43.9754 59.334 43.0654 58.437ZM54.2449 53.5455V63H53.1001V54.7457H53.0447L50.7364 56.2784V55.1151L53.1001 53.5455H54.2449ZM56.964 63V62.169L60.0848 58.7528C60.451 58.3527 60.7526 58.005 60.9896 57.7095C61.2266 57.411 61.402 57.1309 61.5159 56.8693C61.6328 56.6046 61.6913 56.3277 61.6913 56.0384C61.6913 55.706 61.6113 55.4182 61.4513 55.1751C61.2943 54.9319 61.0789 54.7442 60.805 54.6119C60.531 54.4795 60.2233 54.4134 59.8817 54.4134C59.5185 54.4134 59.2015 54.4888 58.9307 54.6396C58.6629 54.7873 58.4552 54.995 58.3074 55.2628C58.1628 55.5305 58.0905 55.8445 58.0905 56.2045H57.001C57.001 55.6506 57.1287 55.1643 57.3841 54.7457C57.6396 54.3272 57.9874 54.0009 58.4275 53.767C58.8706 53.5331 59.3677 53.4162 59.9186 53.4162C60.4726 53.4162 60.9635 53.5331 61.3912 53.767C61.819 54.0009 62.1545 54.3164 62.3976 54.7134C62.6408 55.1104 62.7623 55.5521 62.7623 56.0384C62.7623 56.3861 62.6992 56.7262 62.5731 57.0586C62.45 57.3879 62.2345 57.7557 61.9268 58.1619C61.6221 58.5651 61.1989 59.0575 60.6572 59.6392L58.5336 61.9105V61.9844H62.9285V63H56.964ZM65.6476 61.7905C65.4199 61.7905 65.2245 61.7089 65.0613 61.5458C64.8982 61.3827 64.8167 61.1873 64.8167 60.9595C64.8167 60.7318 64.8982 60.5363 65.0613 60.3732C65.2245 60.2101 65.4199 60.1286 65.6476 60.1286C65.8754 60.1286 66.0708 60.2101 66.2339 60.3732C66.397 60.5363 66.4786 60.7318 66.4786 60.9595C66.4786 61.1103 66.4401 61.2488 66.3632 61.375C66.2893 61.5012 66.1893 61.6027 66.0631 61.6797C65.94 61.7536 65.8015 61.7905 65.6476 61.7905ZM65.6476 57.0078C65.4199 57.0078 65.2245 56.9263 65.0613 56.7631C64.8982 56.6 64.8167 56.4046 64.8167 56.1768C64.8167 55.9491 64.8982 55.7537 65.0613 55.5906C65.2245 55.4274 65.4199 55.3459 65.6476 55.3459C65.8754 55.3459 66.0708 55.4274 66.2339 55.5906C66.397 55.7537 66.4786 55.9491 66.4786 56.1768C66.4786 56.3277 66.4401 56.4661 66.3632 56.5923C66.2893 56.7185 66.1893 56.8201 66.0631 56.897C65.94 56.9709 65.8015 57.0078 65.6476 57.0078ZM71.6098 63.1293C71.0004 63.1293 70.4572 63.0246 69.9802 62.8153C69.5062 62.6061 69.1292 62.3152 68.8492 61.9428C68.5722 61.5674 68.4214 61.1319 68.3968 60.6364H69.5601C69.5847 60.9411 69.6894 61.2042 69.874 61.4258C70.0587 61.6443 70.3003 61.8136 70.5988 61.9336C70.8973 62.0536 71.2282 62.1136 71.5914 62.1136C71.9976 62.1136 72.3577 62.0429 72.6716 61.9013C72.9855 61.7597 73.2317 61.5627 73.4102 61.3104C73.5887 61.058 73.678 60.7656 73.678 60.4332C73.678 60.0855 73.5918 59.7792 73.4195 59.5146C73.2471 59.2468 72.9948 59.0375 72.6624 58.8867C72.33 58.7359 71.9237 58.6605 71.4436 58.6605H70.6865V57.6449H71.4436C71.8191 57.6449 72.1484 57.5772 72.4316 57.4418C72.7178 57.3063 72.9409 57.1155 73.1009 56.8693C73.2641 56.6231 73.3456 56.3338 73.3456 56.0014C73.3456 55.6813 73.2748 55.4028 73.1333 55.1658C72.9917 54.9289 72.7916 54.7442 72.5331 54.6119C72.2777 54.4795 71.9761 54.4134 71.6283 54.4134C71.3021 54.4134 70.9943 54.4734 70.705 54.5934C70.4188 54.7103 70.1849 54.8812 70.0033 55.1058C69.8217 55.3274 69.7232 55.5952 69.7078 55.9091H68.5999C68.6183 55.4136 68.7676 54.9796 69.0477 54.6072C69.3277 54.2318 69.694 53.9394 70.1464 53.7301C70.6019 53.5208 71.102 53.4162 71.6468 53.4162C72.2315 53.4162 72.7332 53.5347 73.1517 53.7717C73.5703 54.0056 73.8919 54.3149 74.1166 54.6996C74.3412 55.0843 74.4536 55.4998 74.4536 55.946C74.4536 56.4785 74.3135 56.9324 74.0335 57.3079C73.7565 57.6834 73.3795 57.9434 72.9024 58.0881V58.1619C73.4995 58.2604 73.9658 58.5143 74.3012 58.9237C74.6367 59.3299 74.8044 59.8331 74.8044 60.4332C74.8044 60.9472 74.6644 61.4089 74.3843 61.8182C74.1073 62.2244 73.7288 62.5445 73.2487 62.7784C72.7686 63.0123 72.2223 63.1293 71.6098 63.1293ZM79.7764 63.1293C79.0808 63.1293 78.4884 62.94 77.999 62.5614C77.5097 62.1798 77.1357 61.6274 76.8772 60.9041C76.6187 60.1778 76.4894 59.3007 76.4894 58.2727C76.4894 57.2509 76.6187 56.3784 76.8772 55.6552C77.1388 54.9289 77.5143 54.3749 78.0036 53.9933C78.4961 53.6085 79.087 53.4162 79.7764 53.4162C80.4658 53.4162 81.0551 53.6085 81.5445 53.9933C82.0369 54.3749 82.4124 54.9289 82.6709 55.6552C82.9325 56.3784 83.0633 57.2509 83.0633 58.2727C83.0633 59.3007 82.934 60.1778 82.6755 60.9041C82.417 61.6274 82.0431 62.1798 81.5537 62.5614C81.0644 62.94 80.4719 63.1293 79.7764 63.1293ZM79.7764 62.1136C80.4658 62.1136 81.0013 61.7812 81.3829 61.1165C81.7645 60.4517 81.9553 59.5038 81.9553 58.2727C81.9553 57.4541 81.8676 56.757 81.6922 56.1815C81.5199 55.6059 81.2706 55.1674 80.9443 54.8658C80.6212 54.5642 80.2319 54.4134 79.7764 54.4134C79.0931 54.4134 78.5592 54.7504 78.1744 55.4244C77.7897 56.0953 77.5974 57.0447 77.5974 58.2727C77.5974 59.0914 77.6836 59.7869 77.8559 60.3594C78.0283 60.9318 78.276 61.3673 78.5992 61.6658C78.9254 61.9644 79.3178 62.1136 79.7764 62.1136Z" fill="black"/>
<path d="M28.736 14.497C28.073 15.654 26.838 17.084 25.473 17.929C25.317 17.539 24.966 16.954 24.706 16.616C26.071 15.823 27.358 14.263 27.956 13.015H29.399C30.244 14.406 31.531 15.784 32.805 16.408C32.519 16.785 32.194 17.37 31.973 17.825C30.738 17.058 29.425 15.667 28.736 14.497ZM28.71 16.434L30.062 16.98C29.243 18.033 28.034 18.982 26.877 19.619C26.643 19.32 26.227 18.93 25.889 18.683C26.89 18.176 28.086 17.292 28.71 16.434ZM29.88 18.306L31.245 18.878C30.179 20.243 28.541 21.374 26.903 22.115C26.682 21.777 26.292 21.335 25.928 21.036C27.397 20.464 29.048 19.437 29.88 18.306ZM30.894 20.373L32.298 20.984C30.972 23.012 28.775 24.377 26.253 25.196C26.045 24.793 25.655 24.234 25.278 23.87C27.631 23.246 29.789 22.076 30.894 20.373ZM21.001 16.954H24.927V18.124H21.001V16.954ZM21.04 13.366H24.888V14.549H21.04V13.366ZM21.001 18.722H24.927V19.905H21.001V18.722ZM20.377 15.121H25.304V16.356H20.377V15.121ZM21.677 20.529H24.94V24.481H21.677V23.246H23.614V21.764H21.677V20.529ZM20.975 20.529H22.288V25.001H20.975V20.529ZM37.082 16.135H45.402V17.305H37.082V16.135ZM36.952 18.059L37.745 17.37C38.213 17.656 38.824 18.098 39.136 18.397L38.291 19.164C38.005 18.852 37.42 18.384 36.952 18.059ZM42.386 22.934L43.569 22.349C44.232 22.934 45.038 23.766 45.428 24.351L44.154 25.014C43.829 24.442 43.049 23.558 42.386 22.934ZM39.396 20.737V21.244H42.75V20.737H39.396ZM39.396 19.385V19.879H42.75V19.385H39.396ZM38.096 18.475H44.115V22.154H38.096V18.475ZM38.018 22.31L39.422 22.7C38.954 23.571 38.174 24.455 37.433 25.001C37.186 24.741 36.627 24.299 36.289 24.104C36.978 23.662 37.641 22.986 38.018 22.31ZM44.479 17.279L45.376 17.929C44.96 18.345 44.44 18.722 44.05 18.969L43.27 18.371C43.647 18.098 44.18 17.591 44.479 17.279ZM42.555 16.629C43.166 17.76 44.375 18.813 45.714 19.307C45.415 19.567 45.012 20.061 44.817 20.399C43.374 19.736 42.126 18.449 41.398 16.993L42.555 16.629ZM40.319 21.686H41.827V23.831C41.827 24.468 41.71 24.793 41.229 24.988C40.774 25.183 40.189 25.196 39.396 25.196C39.318 24.806 39.097 24.286 38.915 23.935C39.396 23.961 39.942 23.948 40.111 23.948C40.267 23.948 40.319 23.909 40.319 23.779V21.686ZM40.085 15.251L41.528 15.433C40.891 17.422 39.669 19.229 37.316 20.464C37.121 20.126 36.692 19.658 36.38 19.45C38.551 18.423 39.669 16.824 40.085 15.251ZM35.951 14.003H45.519V15.316H35.951V14.003ZM35.21 14.003H36.64V18.202C36.64 20.295 36.354 23.337 34.703 25.17C34.482 24.871 33.91 24.325 33.611 24.13C35.08 22.492 35.21 20.061 35.21 18.202V14.003ZM39.292 12.963H40.943V14.796H39.292V12.963ZM33.351 15.654L34.456 15.199C34.833 16.018 35.171 17.084 35.249 17.747L34.053 18.293C33.988 17.604 33.689 16.499 33.351 15.654ZM33.221 20.165C33.832 19.905 34.677 19.476 35.574 19.021L35.925 20.204C35.184 20.672 34.404 21.14 33.663 21.569L33.221 20.165ZM51.564 14.341H58.207V15.693H51.564V14.341ZM51.122 16.837H58.597V18.215H51.122V16.837ZM51.148 19.32H58.506V20.685H51.148V19.32ZM54.073 12.95H55.607V17.721H54.073V12.95ZM55.724 18.137H57.245V23.519C57.245 24.273 57.102 24.676 56.595 24.897C56.075 25.131 55.373 25.157 54.398 25.157C54.346 24.728 54.112 24.104 53.904 23.701C54.541 23.727 55.256 23.727 55.451 23.714C55.659 23.714 55.724 23.675 55.724 23.493V18.137ZM51.668 21.556L52.916 20.841C53.527 21.478 54.216 22.336 54.502 22.973L53.163 23.753C52.916 23.142 52.266 22.219 51.668 21.556ZM47.547 13.756H50.901V22.648H47.547V21.257H49.445V15.147H47.547V13.756ZM47.625 17.448H50.147V18.813H47.625V17.448ZM46.819 13.756H48.262V23.805H46.819V13.756ZM63.706 20.893H67.268V22.011H63.706V20.893ZM63.615 18.969H67.996V23.961H63.615V22.817H66.54V20.113H63.615V18.969ZM62.978 18.969H64.382V24.624H62.978V18.969ZM60.794 15.264H64.057V16.317H60.794V15.264ZM66.826 15.264H70.115V16.317H66.826V15.264ZM69.478 13.457H71.051V23.324C71.051 24.169 70.882 24.624 70.362 24.884C69.842 25.144 69.088 25.17 67.97 25.17C67.905 24.728 67.671 24 67.463 23.584C68.139 23.623 68.932 23.61 69.166 23.61C69.4 23.61 69.478 23.532 69.478 23.311V13.457ZM60.924 13.457H65.032V18.176H60.924V17.058H63.576V14.588H60.924V13.457ZM70.31 13.457V14.588H67.398V17.097H70.31V18.215H65.916V13.457H70.31ZM60.027 13.457H61.574V25.17H60.027V13.457Z" fill="white"/>
<path d="M112.06 10.26H122.5V11.72H112.06V10.26ZM112.06 15.08H122.58V16.52H112.06V15.08ZM111.9 19.92H122.48V21.36H111.9V19.92ZM111.14 10.26H112.66V16.44C112.66 19.9 112.16 24.62 108.72 27.62C108.5 27.3 107.9 26.76 107.58 26.54C110.8 23.72 111.14 19.66 111.14 16.44V10.26ZM121.84 10.26H123.4V25.4C123.4 26.46 123.12 26.98 122.36 27.24C121.58 27.5 120.26 27.52 118.1 27.52C118 27.08 117.72 26.36 117.46 25.94C119.12 26 120.76 25.98 121.22 25.98C121.68 25.96 121.84 25.82 121.84 25.38V10.26Z" fill="white"/>
<path d="M146.266 13.26L147.746 13.58C147.406 15.98 146.726 18.42 144.946 19.78L143.646 18.9C145.246 17.68 145.946 15.5 146.266 13.26ZM158.826 13.24L160.446 13.88C159.466 15.76 158.186 18.02 157.166 19.46L155.906 18.88C156.886 17.4 158.146 14.98 158.826 13.24ZM152.146 9.5H152.946V15.98C152.946 18.28 154.366 23.8 161.306 26.24C160.986 26.58 160.526 27.2 160.306 27.64C154.506 25.42 152.546 20.82 152.146 18.88C151.746 20.84 149.926 25.3 144.246 27.64C144.046 27.3 143.546 26.7 143.206 26.38C149.946 23.82 151.346 18.3 151.346 15.98V9.5H152.146Z" fill="white"/>
<path d="M177.755 14.34H183.775V15.84H177.755V14.34ZM185.915 9.26H187.475V25.5C187.475 26.56 187.195 27.04 186.535 27.3C185.855 27.58 184.695 27.62 182.835 27.62C182.775 27.18 182.475 26.44 182.235 25.98C183.675 26.04 184.955 26.02 185.375 26.02C185.755 26 185.915 25.88 185.915 25.5V9.26ZM183.255 14.34H183.575L183.835 14.28L184.855 14.66C183.835 19.94 181.415 23.68 178.475 25.68C178.215 25.32 177.615 24.72 177.255 24.48C180.115 22.68 182.415 19.26 183.255 14.68V14.34ZM187.395 12.52C188.775 17.9 191.635 22.76 196.115 24.72C195.735 25.02 195.215 25.62 194.955 26.08C190.395 23.82 187.675 18.72 186.195 12.8L187.395 12.52ZM193.915 12.46L195.295 13.44C193.655 15.26 191.375 17.46 189.635 18.8L188.575 17.96C190.275 16.58 192.595 14.24 193.915 12.46Z" fill="white"/>
<path d="M212.424 14.14H229.784V15.62H212.424V14.14ZM220.284 9.22H221.864V27.6H220.284V9.22ZM219.944 14.9L221.244 15.34C219.384 19.5 216.144 23.42 212.784 25.48C212.504 25.08 212.004 24.52 211.644 24.2C214.944 22.42 218.244 18.62 219.944 14.9ZM222.164 14.92C223.904 18.54 227.284 22.34 230.504 24.12C230.124 24.42 229.604 25.02 229.344 25.42C226.084 23.36 222.804 19.38 220.904 15.38L222.164 14.92Z" fill="white"/>
<path d="M255.453 10.66C253.793 13.04 250.573 15.8 247.193 17.6C247.013 17.24 246.593 16.72 246.273 16.4C249.733 14.66 253.053 11.7 254.593 9.18H256.133C258.253 12.08 261.713 14.76 264.853 16.16C264.493 16.52 264.133 17.04 263.873 17.48C260.773 15.88 257.293 13.14 255.453 10.66ZM250.493 15.3H260.533V16.66H250.493V15.3ZM247.913 19.32H263.133V20.66H247.913V19.32ZM246.993 25.64H264.093V26.96H246.993V25.64ZM254.653 15.82H256.233V26.34H254.653V15.82ZM249.573 21.68L250.793 21.18C251.613 22.28 252.433 23.8 252.713 24.8L251.413 25.36C251.153 24.36 250.373 22.8 249.573 21.68ZM260.033 21.14L261.453 21.72C260.693 22.98 259.753 24.42 259.013 25.36L257.873 24.86C258.593 23.88 259.533 22.28 260.033 21.14Z" fill="white"/>
<path d="M282.281 15.64H297.661V17.12H282.281V15.64ZM281.001 25.24H298.941V26.72H281.001V25.24ZM289.121 9.28H290.701V26.18H289.121V9.28Z" fill="white"/>
<path d="M317.91 10.56H331.01V27.3H329.43V12.08H319.45V27.38H317.91V10.56ZM318.93 17.5H330.09V18.98H318.93V17.5ZM318.91 24.58H330.13V26.08H318.91V24.58Z" fill="white"/>
<path d="M363.199 18.06H364.659V25.54C364.659 26.12 364.739 26.22 365.179 26.22C365.379 26.22 366.299 26.22 366.539 26.22C366.979 26.22 367.059 25.78 367.119 23.32C367.439 23.56 368.019 23.8 368.399 23.9C368.279 26.7 367.939 27.48 366.679 27.48C366.399 27.48 365.219 27.48 364.939 27.48C363.519 27.48 363.199 27.02 363.199 25.54V18.06ZM359.219 11.92V16.98H365.759V11.92H359.219ZM357.799 10.54H367.239V18.34H357.799V10.54ZM349.919 12.96H356.159V14.34H349.919V12.96ZM352.839 18.94L354.299 17.18V27.6H352.839V18.94ZM352.839 9.22H354.299V13.64H352.839V9.22ZM354.299 17.38C354.939 17.9 357.119 19.94 357.639 20.46L356.719 21.72C356.039 20.82 354.219 18.9 353.419 18.18L354.299 17.38ZM355.659 12.96H355.959L356.219 12.9L357.059 13.46C355.639 17.12 352.699 20.46 349.959 22.3C349.819 21.92 349.439 21.22 349.199 20.96C351.779 19.36 354.499 16.32 355.659 13.28V12.96ZM359.799 17.82H361.259C361.059 22.58 360.499 25.84 356.879 27.66C356.699 27.3 356.259 26.76 355.919 26.48C359.219 24.92 359.639 22.06 359.799 17.82Z" fill="white"/>
<path d="M9.30256 95.5455V105H8.15767V96.7457H8.10227L5.79403 98.2784V97.1151L8.15767 95.5455H9.30256ZM11.8001 103.061V102.119L15.9549 95.5455H16.6381V97.0043H16.1765L13.0373 101.972V102.045H18.6325V103.061H11.8001ZM16.2504 105V102.775V102.336V95.5455H17.3398V105H16.2504ZM21.175 103.79C20.9472 103.79 20.7518 103.709 20.5887 103.546C20.4256 103.383 20.344 103.187 20.344 102.96C20.344 102.732 20.4256 102.536 20.5887 102.373C20.7518 102.21 20.9472 102.129 21.175 102.129C21.4027 102.129 21.5982 102.21 21.7613 102.373C21.9244 102.536 22.0059 102.732 22.0059 102.96C22.0059 103.11 21.9675 103.249 21.8905 103.375C21.8167 103.501 21.7166 103.603 21.5905 103.68C21.4674 103.754 21.3289 103.79 21.175 103.79ZM21.175 99.0078C20.9472 99.0078 20.7518 98.9263 20.5887 98.7631C20.4256 98.6 20.344 98.4046 20.344 98.1768C20.344 97.9491 20.4256 97.7537 20.5887 97.5906C20.7518 97.4274 20.9472 97.3459 21.175 97.3459C21.4027 97.3459 21.5982 97.4274 21.7613 97.5906C21.9244 97.7537 22.0059 97.9491 22.0059 98.1768C22.0059 98.3277 21.9675 98.4661 21.8905 98.5923C21.8167 98.7185 21.7166 98.8201 21.5905 98.897C21.4674 98.9709 21.3289 99.0078 21.175 99.0078ZM27.0264 105.129C26.3308 105.129 25.7384 104.94 25.249 104.561C24.7597 104.18 24.3857 103.627 24.1272 102.904C23.8687 102.178 23.7394 101.301 23.7394 100.273C23.7394 99.2509 23.8687 98.3784 24.1272 97.6552C24.3888 96.9289 24.7643 96.3749 25.2536 95.9933C25.7461 95.6085 26.337 95.4162 27.0264 95.4162C27.7158 95.4162 28.3051 95.6085 28.7945 95.9933C29.2869 96.3749 29.6624 96.9289 29.9209 97.6552C30.1825 98.3784 30.3133 99.2509 30.3133 100.273C30.3133 101.301 30.184 102.178 29.9255 102.904C29.667 103.627 29.2931 104.18 28.8037 104.561C28.3144 104.94 27.7219 105.129 27.0264 105.129ZM27.0264 104.114C27.7158 104.114 28.2513 103.781 28.6329 103.116C29.0145 102.452 29.2053 101.504 29.2053 100.273C29.2053 99.4541 29.1176 98.757 28.9422 98.1815C28.7699 97.6059 28.5206 97.1674 28.1943 96.8658C27.8712 96.5642 27.4819 96.4134 27.0264 96.4134C26.3431 96.4134 25.8092 96.7504 25.4244 97.4244C25.0397 98.0953 24.8474 99.0447 24.8474 100.273C24.8474 101.091 24.9336 101.787 25.1059 102.359C25.2783 102.932 25.526 103.367 25.8492 103.666C26.1754 103.964 26.5678 104.114 27.0264 104.114ZM35.1514 105.129C34.4558 105.129 33.8634 104.94 33.374 104.561C32.8847 104.18 32.5107 103.627 32.2522 102.904C31.9937 102.178 31.8644 101.301 31.8644 100.273C31.8644 99.2509 31.9937 98.3784 32.2522 97.6552C32.5138 96.9289 32.8893 96.3749 33.3786 95.9933C33.8711 95.6085 34.462 95.4162 35.1514 95.4162C35.8408 95.4162 36.4301 95.6085 36.9195 95.9933C37.4119 96.3749 37.7874 96.9289 38.0459 97.6552C38.3075 98.3784 38.4383 99.2509 38.4383 100.273C38.4383 101.301 38.309 102.178 38.0505 102.904C37.792 103.627 37.4181 104.18 36.9287 104.561C36.4394 104.94 35.8469 105.129 35.1514 105.129ZM35.1514 104.114C35.8408 104.114 36.3763 103.781 36.7579 103.116C37.1395 102.452 37.3303 101.504 37.3303 100.273C37.3303 99.4541 37.2426 98.757 37.0672 98.1815C36.8949 97.6059 36.6456 97.1674 36.3193 96.8658C35.9962 96.5642 35.6069 96.4134 35.1514 96.4134C34.4681 96.4134 33.9342 96.7504 33.5494 97.4244C33.1647 98.0953 32.9724 99.0447 32.9724 100.273C32.9724 101.091 33.0586 101.787 33.2309 102.359C33.4033 102.932 33.651 103.367 33.9742 103.666C34.3004 103.964 34.6928 104.114 35.1514 104.114ZM45.3369 100.437C44.6479 99.774 44.0759 99.358 43.1269 99.358C42.1129 99.358 41.2159 100.06 40.6699 101.087L39.7469 100.593C40.5789 99.098 41.7749 98.318 43.1399 98.318C44.3229 98.318 45.1679 98.799 46.0779 99.696C46.7669 100.372 47.3389 100.775 48.2879 100.775C49.3019 100.775 50.1989 100.073 50.7449 99.046L51.6679 99.54C50.8359 101.035 49.6399 101.815 48.2749 101.815C47.0919 101.815 46.2469 101.334 45.3369 100.437ZM56.5164 95.5455V105H55.3715V96.7457H55.3161L53.0079 98.2784V97.1151L55.3715 95.5455H56.5164ZM62.2639 105.129C61.6299 105.129 61.0698 105.017 60.5835 104.792C60.1003 104.565 59.7233 104.252 59.4525 103.855C59.1817 103.455 59.0478 103 59.0509 102.489C59.0478 102.089 59.1263 101.719 59.2863 101.381C59.4463 101.039 59.6649 100.754 59.9419 100.527C60.2219 100.296 60.5343 100.15 60.879 100.088V100.033C60.4266 99.9157 60.0665 99.6618 59.7987 99.271C59.531 98.877 59.3986 98.4292 59.4017 97.9276C59.3986 97.4474 59.5202 97.0181 59.7664 96.6396C60.0126 96.261 60.3512 95.9625 60.782 95.744C61.216 95.5254 61.71 95.4162 62.2639 95.4162C62.8118 95.4162 63.3011 95.5254 63.732 95.744C64.1628 95.9625 64.5014 96.261 64.7476 96.6396C64.9969 97.0181 65.1231 97.4474 65.1262 97.9276C65.1231 98.4292 64.9861 98.877 64.7153 99.271C64.4475 99.6618 64.0921 99.9157 63.6489 100.033V100.088C63.9905 100.15 64.2983 100.296 64.5722 100.527C64.8461 100.754 65.0646 101.039 65.2277 101.381C65.3908 101.719 65.4739 102.089 65.477 102.489C65.4739 103 65.3354 103.455 65.0615 103.855C64.7907 104.252 64.4137 104.565 63.9305 104.792C63.4504 105.017 62.8949 105.129 62.2639 105.129ZM62.2639 104.114C62.6917 104.114 63.061 104.044 63.3719 103.906C63.6827 103.767 63.9228 103.572 64.0921 103.32C64.2613 103.067 64.3475 102.772 64.3506 102.433C64.3475 102.076 64.2552 101.761 64.0736 101.487C63.892 101.213 63.6443 100.998 63.3303 100.841C63.0195 100.684 62.664 100.605 62.2639 100.605C61.8608 100.605 61.5007 100.684 61.1837 100.841C60.8698 100.998 60.622 101.213 60.4404 101.487C60.2619 101.761 60.1742 102.076 60.1773 102.433C60.1742 102.772 60.2558 103.067 60.422 103.32C60.5912 103.572 60.8328 103.767 61.1468 103.906C61.4607 104.044 61.8331 104.114 62.2639 104.114ZM62.2639 99.6264C62.6025 99.6264 62.9026 99.5587 63.1642 99.4233C63.4288 99.2879 63.6366 99.0986 63.7874 98.8555C63.9382 98.6123 64.0151 98.3277 64.0182 98.0014C64.0151 97.6813 63.9397 97.4028 63.792 97.1658C63.6443 96.9258 63.4396 96.7411 63.178 96.6119C62.9164 96.4795 62.6117 96.4134 62.2639 96.4134C61.91 96.4134 61.6007 96.4795 61.336 96.6119C61.0713 96.7411 60.8667 96.9258 60.722 97.1658C60.5774 97.4028 60.5066 97.6813 60.5097 98.0014C60.5066 98.3277 60.5789 98.6123 60.7267 98.8555C60.8775 99.0986 61.0852 99.2879 61.3499 99.4233C61.6146 99.5587 61.9192 99.6264 62.2639 99.6264ZM68.0588 103.79C67.831 103.79 67.6356 103.709 67.4725 103.546C67.3094 103.383 67.2278 103.187 67.2278 102.96C67.2278 102.732 67.3094 102.536 67.4725 102.373C67.6356 102.21 67.831 102.129 68.0588 102.129C68.2865 102.129 68.4819 102.21 68.6451 102.373C68.8082 102.536 68.8897 102.732 68.8897 102.96C68.8897 103.11 68.8513 103.249 68.7743 103.375C68.7005 103.501 68.6004 103.603 68.4743 103.68C68.3511 103.754 68.2127 103.79 68.0588 103.79ZM68.0588 99.0078C67.831 99.0078 67.6356 98.9263 67.4725 98.7631C67.3094 98.6 67.2278 98.4046 67.2278 98.1768C67.2278 97.9491 67.3094 97.7537 67.4725 97.5906C67.6356 97.4274 67.831 97.3459 68.0588 97.3459C68.2865 97.3459 68.4819 97.4274 68.6451 97.5906C68.8082 97.7537 68.8897 97.9491 68.8897 98.1768C68.8897 98.3277 68.8513 98.4661 68.7743 98.5923C68.7005 98.7185 68.6004 98.8201 68.4743 98.897C68.3511 98.9709 68.2127 99.0078 68.0588 99.0078ZM73.9102 105.129C73.2146 105.129 72.6222 104.94 72.1328 104.561C71.6435 104.18 71.2695 103.627 71.011 102.904C70.7525 102.178 70.6232 101.301 70.6232 100.273C70.6232 99.2509 70.7525 98.3784 71.011 97.6552C71.2726 96.9289 71.6481 96.3749 72.1374 95.9933C72.6299 95.6085 73.2208 95.4162 73.9102 95.4162C74.5996 95.4162 75.1889 95.6085 75.6783 95.9933C76.1707 96.3749 76.5462 96.9289 76.8047 97.6552C77.0663 98.3784 77.1971 99.2509 77.1971 100.273C77.1971 101.301 77.0678 102.178 76.8093 102.904C76.5508 103.627 76.1768 104.18 75.6875 104.561C75.1982 104.94 74.6057 105.129 73.9102 105.129ZM73.9102 104.114C74.5996 104.114 75.1351 103.781 75.5167 103.116C75.8983 102.452 76.0891 101.504 76.0891 100.273C76.0891 99.4541 76.0014 98.757 75.826 98.1815C75.6536 97.6059 75.4044 97.1674 75.0781 96.8658C74.755 96.5642 74.3656 96.4134 73.9102 96.4134C73.2269 96.4134 72.6929 96.7504 72.3082 97.4244C71.9235 98.0953 71.7312 99.0447 71.7312 100.273C71.7312 101.091 71.8174 101.787 71.9897 102.359C72.1621 102.932 72.4098 103.367 72.733 103.666C73.0592 103.964 73.4516 104.114 73.9102 104.114ZM82.0352 105.129C81.3396 105.129 80.7472 104.94 80.2578 104.561C79.7685 104.18 79.3945 103.627 79.136 102.904C78.8775 102.178 78.7482 101.301 78.7482 100.273C78.7482 99.2509 78.8775 98.3784 79.136 97.6552C79.3976 96.9289 79.7731 96.3749 80.2624 95.9933C80.7549 95.6085 81.3458 95.4162 82.0352 95.4162C82.7246 95.4162 83.3139 95.6085 83.8033 95.9933C84.2957 96.3749 84.6712 96.9289 84.9297 97.6552C85.1913 98.3784 85.3221 99.2509 85.3221 100.273C85.3221 101.301 85.1928 102.178 84.9343 102.904C84.6758 103.627 84.3018 104.18 83.8125 104.561C83.3232 104.94 82.7307 105.129 82.0352 105.129ZM82.0352 104.114C82.7246 104.114 83.2601 103.781 83.6417 103.116C84.0233 102.452 84.2141 101.504 84.2141 100.273C84.2141 99.4541 84.1264 98.757 83.951 98.1815C83.7786 97.6059 83.5294 97.1674 83.2031 96.8658C82.88 96.5642 82.4906 96.4134 82.0352 96.4134C81.3519 96.4134 80.8179 96.7504 80.4332 97.4244C80.0485 98.0953 79.8562 99.0447 79.8562 100.273C79.8562 101.091 79.9424 101.787 80.1147 102.359C80.2871 102.932 80.5348 103.367 80.858 103.666C81.1842 103.964 81.5766 104.114 82.0352 104.114Z" fill="black"/>
<circle cx="117" cy="58" r="10" fill="#5CC1DD"/>
<circle cx="117" cy="101" r="10" fill="#5CC1DD"/>
<circle cx="151" cy="58" r="10" fill="#5CC1DD"/>
<circle cx="151" cy="101" r="10" fill="#5CC1DD"/>
<circle cx="220" cy="58" r="10" fill="#5CC1DD"/>
<circle cx="220" cy="101" r="10" fill="#5CC1DD"/>
<circle cx="255" cy="58" r="10" fill="#5CC1DD"/>
<circle cx="255" cy="101" r="10" fill="#5CC1DD"/>
<circle cx="289" cy="58" r="10" fill="#5CC1DD"/>
<circle cx="289" cy="101" r="10" fill="#5CC1DD"/>
<circle cx="323" cy="58" r="10" fill="#5CC1DD"/>
<circle cx="323" cy="101" r="10" fill="#5CC1DD"/>
<path d="M180 65.1421L192.813 51" stroke="#5CC1DD" stroke-width="2" stroke-linecap="round"/>
<path d="M180 108.142L192.813 94" stroke="#5CC1DD" stroke-width="2" stroke-linecap="round"/>
<path d="M351.537 66.1421L364.35 52" stroke="#5CC1DD" stroke-width="2" stroke-linecap="round"/>
<path d="M351.537 109.142L364.35 95" stroke="#5CC1DD" stroke-width="2" stroke-linecap="round"/>
</svg>
