<svg width="28" height="28" viewBox="0 0 28 28" fill="none" xmlns="http://www.w3.org/2000/svg">
<path d="M0.632102 18.7273H2.52841L4.53125 23.6136H4.61648L6.61932 18.7273H8.51562V26H7.02415V21.2663H6.96378L5.08168 25.9645H4.06605L2.18395 21.2486H2.12358V26H0.632102V18.7273ZM12.2399 26.1065C11.6788 26.1065 11.1958 25.9929 10.791 25.7656C10.3886 25.536 10.0784 25.2116 9.86062 24.7926C9.64281 24.3712 9.53391 23.8729 9.53391 23.2976C9.53391 22.7365 9.64281 22.2441 9.86062 21.8203C10.0784 21.3965 10.385 21.0663 10.7804 20.8295C11.1781 20.5928 11.6445 20.4744 12.1795 20.4744C12.5394 20.4744 12.8743 20.5324 13.1845 20.6484C13.497 20.7621 13.7692 20.9337 14.0012 21.1634C14.2356 21.393 14.4179 21.6818 14.5481 22.0298C14.6783 22.3755 14.7434 22.7803 14.7434 23.2443V23.6598H10.1376V22.7223H13.3194C13.3194 22.5045 13.2721 22.3116 13.1774 22.1435C13.0827 21.9754 12.9513 21.844 12.7832 21.7493C12.6175 21.6522 12.4245 21.6037 12.2044 21.6037C11.9747 21.6037 11.7711 21.657 11.5936 21.7635C11.4184 21.8677 11.2811 22.0085 11.1816 22.1861C11.0822 22.3613 11.0313 22.5566 11.0289 22.772V23.6634C11.0289 23.9332 11.0787 24.1664 11.1781 24.3629C11.2799 24.5594 11.4231 24.7109 11.6078 24.8175C11.7924 24.924 12.0114 24.9773 12.2647 24.9773C12.4328 24.9773 12.5867 24.9536 12.7264 24.9062C12.8661 24.8589 12.9856 24.7879 13.085 24.6932C13.1845 24.5985 13.2602 24.4825 13.3123 24.3452L14.7115 24.4375C14.6404 24.7737 14.4949 25.0672 14.2747 25.3182C14.0569 25.5668 13.7752 25.7609 13.4295 25.9006C13.0862 26.0379 12.6897 26.1065 12.2399 26.1065ZM17.2434 22.8466V26H15.7306V20.5455H17.1724V21.5078H17.2363C17.3571 21.1906 17.5595 20.9396 17.8436 20.755C18.1277 20.5679 18.4721 20.4744 18.877 20.4744C19.2557 20.4744 19.586 20.5573 19.8677 20.723C20.1494 20.8887 20.3684 21.1255 20.5247 21.4332C20.6809 21.7386 20.7591 22.1032 20.7591 22.527V26H19.2463V22.7969C19.2486 22.4631 19.1634 22.2027 18.9906 22.0156C18.8178 21.8262 18.5798 21.7315 18.2768 21.7315C18.0732 21.7315 17.8933 21.7753 17.737 21.8629C17.5832 21.9505 17.4624 22.0784 17.3748 22.2464C17.2896 22.4122 17.2458 22.6122 17.2434 22.8466ZM25.4492 23.6776V20.5455H26.962V26H25.5096V25.0092H25.4528C25.3297 25.3288 25.1249 25.5857 24.8384 25.7798C24.5543 25.974 24.2075 26.071 23.7979 26.071C23.4334 26.071 23.1126 25.9882 22.8356 25.8224C22.5586 25.6567 22.342 25.4212 22.1857 25.1158C22.0318 24.8104 21.9537 24.4446 21.9513 24.0185V20.5455H23.4641V23.7486C23.4665 24.0705 23.5529 24.325 23.7234 24.5121C23.8938 24.6991 24.1223 24.7926 24.4087 24.7926C24.591 24.7926 24.7615 24.7512 24.9201 24.6683C25.0787 24.5831 25.2066 24.4576 25.3036 24.2919C25.4031 24.1262 25.4516 23.9214 25.4492 23.6776Z" fill="#353535"/>
<rect x="1" width="25" height="4" rx="2" fill="#353535"/>
<path d="M1 11C1 9.89543 1.89543 9 3 9H24C25.1046 9 26 9.89543 26 11C26 12.1046 25.1046 13 24 13H3C1.89543 13 1 12.1046 1 11Z" fill="#353535"/>
</svg>
